<svg width="28" height="24" viewBox="0 0 28 24" fill="none" xmlns="http://www.w3.org/2000/svg">
<path d="M21 11.5C21.2761 11.5 21.5 11.7239 21.5 12C21.5 12.2761 21.2761 12.5 21 12.5V11.5ZM1 12.5C0.723858 12.5 0.5 12.2761 0.5 12C0.5 11.7239 0.723858 11.5 1 11.5V12.5ZM21 12.5H1V11.5H21V12.5Z" fill="#2E524A"/>
<path d="M25.6427 11.7856L22.2116 9.72696C21.6784 9.40703 21 9.79112 21 10.413V13.587C21 14.2089 21.6784 14.593 22.2116 14.273L25.6427 12.2144C25.8045 12.1173 25.8045 11.8827 25.6427 11.7856Z" fill="#2E524A"/>
</svg>
