<svg width="113" height="21" viewBox="0 0 113 21" fill="none" xmlns="http://www.w3.org/2000/svg">
<path d="M20.625 7.21875L14.9219 6.39844L12.3438 1.20312C11.9141 0.304688 10.5859 0.265625 10.1172 1.20312L7.57812 6.39844L1.83594 7.21875C0.820312 7.375 0.429688 8.625 1.17188 9.36719L5.27344 13.3906L4.29688 19.0547C4.14062 20.0703 5.23438 20.8516 6.13281 20.3828L11.25 17.6875L16.3281 20.3828C17.2266 20.8516 18.3203 20.0703 18.1641 19.0547L17.1875 13.3906L21.2891 9.36719C22.0312 8.625 21.6406 7.375 20.625 7.21875ZM15.1562 12.7266L16.0938 18.1172L11.25 15.5781L6.36719 18.1172L7.30469 12.7266L3.35938 8.89844L8.78906 8.11719L11.25 3.19531L13.6719 8.11719L19.1016 8.89844L15.1562 12.7266ZM43.125 7.21875L37.4219 6.39844L34.8438 1.20312C34.4141 0.304688 33.0859 0.265625 32.6172 1.20312L30.0781 6.39844L24.3359 7.21875C23.3203 7.375 22.9297 8.625 23.6719 9.36719L27.7734 13.3906L26.7969 19.0547C26.6406 20.0703 27.7344 20.8516 28.6328 20.3828L33.75 17.6875L38.8281 20.3828C39.7266 20.8516 40.8203 20.0703 40.6641 19.0547L39.6875 13.3906L43.7891 9.36719C44.5312 8.625 44.1406 7.375 43.125 7.21875ZM37.6562 12.7266L38.5938 18.1172L33.75 15.5781L28.8672 18.1172L29.8047 12.7266L25.8594 8.89844L31.2891 8.11719L33.75 3.19531L36.1719 8.11719L41.6016 8.89844L37.6562 12.7266ZM65.625 7.21875L59.9219 6.39844L57.3438 1.20312C56.9141 0.304688 55.5859 0.265625 55.1172 1.20312L52.5781 6.39844L46.8359 7.21875C45.8203 7.375 45.4297 8.625 46.1719 9.36719L50.2734 13.3906L49.2969 19.0547C49.1406 20.0703 50.2344 20.8516 51.1328 20.3828L56.25 17.6875L61.3281 20.3828C62.2266 20.8516 63.3203 20.0703 63.1641 19.0547L62.1875 13.3906L66.2891 9.36719C67.0312 8.625 66.6406 7.375 65.625 7.21875ZM60.1562 12.7266L61.0938 18.1172L56.25 15.5781L51.3672 18.1172L52.3047 12.7266L48.3594 8.89844L53.7891 8.11719L56.25 3.19531L58.6719 8.11719L64.1016 8.89844L60.1562 12.7266ZM88.125 7.21875L82.4219 6.39844L79.8438 1.20312C79.4141 0.304688 78.0859 0.265625 77.6172 1.20312L75.0781 6.39844L69.3359 7.21875C68.3203 7.375 67.9297 8.625 68.6719 9.36719L72.7734 13.3906L71.7969 19.0547C71.6406 20.0703 72.7344 20.8516 73.6328 20.3828L78.75 17.6875L83.8281 20.3828C84.7266 20.8516 85.8203 20.0703 85.6641 19.0547L84.6875 13.3906L88.7891 9.36719C89.5312 8.625 89.1406 7.375 88.125 7.21875ZM82.6562 12.7266L83.5938 18.1172L78.75 15.5781L73.8672 18.1172L74.8047 12.7266L70.8594 8.89844L76.2891 8.11719L78.75 3.19531L81.1719 8.11719L86.6016 8.89844L82.6562 12.7266ZM110.625 7.21875L104.922 6.39844L102.344 1.20312C101.914 0.304688 100.586 0.265625 100.117 1.20312L97.5781 6.39844L91.8359 7.21875C90.8203 7.375 90.4297 8.625 91.1719 9.36719L95.2734 13.3906L94.2969 19.0547C94.1406 20.0703 95.2344 20.8516 96.1328 20.3828L101.25 17.6875L106.328 20.3828C107.227 20.8516 108.32 20.0703 108.164 19.0547L107.188 13.3906L111.289 9.36719C112.031 8.625 111.641 7.375 110.625 7.21875ZM105.156 12.7266L106.094 18.1172L101.25 15.5781L96.3672 18.1172L97.3047 12.7266L93.3594 8.89844L98.7891 8.11719L101.25 3.19531L103.672 8.11719L109.102 8.89844L105.156 12.7266Z" fill="#FDA043"/>
</svg>
