<svg xmlns="http://www.w3.org/2000/svg" xlink="http://www.w3.org/1999/xlink" width="0" height="0" style="display:none;"><symbol viewBox="0 0 24 24" id="settings-4-line"><path fill="none" d="M0 0h24v24H0z"/><path d="M2 12c0-.865.11-1.703.316-2.504A3 3 0 0 0 4.99 4.867a9.99 9.99 0 0 1 4.335-2.505 3 3 0 0 0 5.348 0 9.99 9.99 0 0 1 4.335 2.505 3 3 0 0 0 2.675 4.63c.206.8.316 1.638.316 2.503 0 .865-.11 1.703-.316 2.504a3 3 0 0 0-2.675 4.629 9.99 9.99 0 0 1-4.335 2.505 3 3 0 0 0-5.348 0 9.99 9.99 0 0 1-4.335-2.505 3 3 0 0 0-2.675-4.63C2.11 13.704 2 12.866 2 12zm4.804 3c.63 1.091.81 2.346.564 3.524.408.29.842.541 1.297.75A4.993 4.993 0 0 1 12 18c1.26 0 2.438.471 3.335 1.274.455-.209.889-.46 1.297-.75A4.993 4.993 0 0 1 17.196 15a4.993 4.993 0 0 1 2.77-2.25 8.126 8.126 0 0 0 0-1.5A4.993 4.993 0 0 1 17.195 9a4.993 4.993 0 0 1-.564-3.524 7.989 7.989 0 0 0-1.297-.75A4.993 4.993 0 0 1 12 6a4.993 4.993 0 0 1-3.335-1.274 7.99 7.99 0 0 0-1.297.75A4.993 4.993 0 0 1 6.804 9a4.993 4.993 0 0 1-2.77 2.25 8.126 8.126 0 0 0 0 1.5A4.993 4.993 0 0 1 6.805 15zM12 15a3 3 0 1 1 0-6 3 3 0 0 1 0 6zm0-2a1 1 0 1 0 0-2 1 1 0 0 0 0 2z"/></symbol><symbol viewBox="0 0 24 24" id="layout-top-line"><path fill="none" d="M0 0h24v24H0z"/><path d="M21 3a1 1 0 0 1 1 1v16a1 1 0 0 1-1 1H3a1 1 0 0 1-1-1V4a1 1 0 0 1 1-1h18zM4 10v9h16v-9H4zm0-2h16V5H4v3z"/></symbol><symbol viewBox="0 0 24 24" id="layout-bottom-line"><path fill="none" d="M0 0h24v24H0z"/><path d="M21 3a1 1 0 0 1 1 1v16a1 1 0 0 1-1 1H3a1 1 0 0 1-1-1V4a1 1 0 0 1 1-1h18zM4 16v3h16v-3H4zm0-2h16V5H4v9z"/></symbol><symbol viewBox="0 0 24 24" id="layout-top-2-line"><path fill="none" d="M0 0h24v24H0z"/><path d="M21 3a1 1 0 0 1 1 1v16a1 1 0 0 1-1 1H3a1 1 0 0 1-1-1V4a1 1 0 0 1 1-1h18zm-1 2H4v14h16V5zm-2 2v2H6V7h12z"/></symbol><symbol viewBox="0 0 24 24" id="palette-line"><path fill="none" d="M0 0h24v24H0z"/><path d="M12 2c5.522 0 10 3.978 10 8.889a5.558 5.558 0 0 1-5.556 5.555h-1.966c-.922 0-1.667.745-1.667 1.667 0 .422.167.811.422 1.1.267.3.434.689.434 1.122C13.667 21.256 12.9 22 12 22 6.478 22 2 17.522 2 12S6.478 2 12 2zm-1.189 16.111a3.664 3.664 0 0 1 3.667-3.667h1.966A3.558 3.558 0 0 0 20 10.89C20 7.139 16.468 4 12 4a8 8 0 0 0-.676 15.972 3.648 3.648 0 0 1-.513-1.86zM7.5 12a1.5 1.5 0 1 1 0-3 1.5 1.5 0 0 1 0 3zm9 0a1.5 1.5 0 1 1 0-3 1.5 1.5 0 0 1 0 3zM12 9a1.5 1.5 0 1 1 0-3 1.5 1.5 0 0 1 0 3z"/></symbol><symbol viewBox="0 0 24 24" id="article-line"><path fill="none" d="M0 0h24v24H0z"/><path d="M20 22H4a1 1 0 0 1-1-1V3a1 1 0 0 1 1-1h16a1 1 0 0 1 1 1v18a1 1 0 0 1-1 1zm-1-2V4H5v16h14zM7 6h4v4H7V6zm0 6h10v2H7v-2zm0 4h10v2H7v-2zm6-9h4v2h-4V7z"/></symbol><symbol viewBox="0 0 24 24" id="gallery-line"><path fill="none" d="M0 0h24v24H0z"/><path d="M20 13c-1.678 0-3.249.46-4.593 1.259A14.984 14.984 0 0 1 18.147 19H20v-6zm-3.996 6C14.044 14.302 9.408 11 4 11v8h12.004zM4 9c3.83 0 7.323 1.435 9.974 3.796A10.949 10.949 0 0 1 20 11V3h1.008c.548 0 .992.445.992.993v16.014a1 1 0 0 1-.992.993H2.992A.993.993 0 0 1 2 20.007V3.993A1 1 0 0 1 2.992 3H6V1h2v4H4v4zm14-8v4h-8V3h6V1h2zm-1.5 9a1.5 1.5 0 1 1 0-3 1.5 1.5 0 0 1 0 3z"/></symbol><symbol viewBox="0 0 24 24" id="folder-user-line"><path fill="none" d="M0 0h24v24H0z"/><path d="M12.414 5H21a1 1 0 0 1 1 1v14a1 1 0 0 1-1 1H3a1 1 0 0 1-1-1V4a1 1 0 0 1 1-1h7.414l2 2zM4 5v14h16V7h-8.414l-2-2H4zm4 13a4 4 0 1 1 8 0H8zm4-5a2.5 2.5 0 1 1 0-5 2.5 2.5 0 0 1 0 5z"/></symbol><symbol viewBox="0 0 24 24" id="file-unknow-line"><path fill="none" d="M0 0h24v24H0z"/><path d="M11 15h2v2h-2v-2zm2-1.645V14h-2v-1.5a1 1 0 0 1 1-1 1.5 1.5 0 1 0-1.471-1.794l-1.962-.393A3.501 3.501 0 1 1 13 13.355zM15 4H5v16h14V8h-4V4zM3 2.992C3 2.444 3.447 2 3.999 2H16l5 5v13.993A1 1 0 0 1 20.007 22H3.993A1 1 0 0 1 3 21.008V2.992z"/></symbol><symbol viewBox="0 0 24 24" id="shopping-bag-2-line"><path fill="none" d="M0 0h24v24H0z"/><path d="M20 22H4a1 1 0 0 1-1-1V3a1 1 0 0 1 1-1h16a1 1 0 0 1 1 1v18a1 1 0 0 1-1 1zm-1-2V4H5v16h14zM9 6v2a3 3 0 0 0 6 0V6h2v2A5 5 0 0 1 7 8V6h2z"/></symbol><symbol viewBox="0 0 24 24" id="heading"><path fill="none" d="M0 0h24v24H0z"/><path d="M17 11V4h2v17h-2v-8H7v8H5V4h2v7z"/></symbol><symbol viewBox="0 0 24 24" id="shield-keyhole-line"><path fill="none" d="M0 0h24v24H0z"/><path d="M12 1l8.217 1.826a1 1 0 0 1 .783.976v9.987a6 6 0 0 1-2.672 4.992L12 23l-6.328-4.219A6 6 0 0 1 3 13.79V3.802a1 1 0 0 1 .783-.976L12 1zm0 2.049L5 4.604v9.185a4 4 0 0 0 1.781 3.328L12 20.597l5.219-3.48A4 4 0 0 0 19 13.79V4.604L12 3.05zM12 7a2 2 0 0 1 1.001 3.732L13 15h-2v-4.268A2 2 0 0 1 12 7z"/></symbol></svg>